<svg width="24" height="24" viewBox="0 0 24 24" fill="none" xmlns="http://www.w3.org/2000/svg">
<path d="M17.7261 2.39393C17.3912 1.95449 16.7637 1.86989 16.3246 2.20498C15.8854 2.54007 15.8008 3.16795 16.1357 3.60739L18.3036 6.45223C17.7913 6.40353 17.3009 6.41833 16.8292 6.48433C15.4863 6.67223 14.3847 7.26763 13.5061 7.75331L13.4957 7.75911C12.5504 8.28166 11.9465 8.61555 11.3537 8.67474C10.8905 8.72099 10.2907 8.60273 9.40969 7.7035C7.55415 5.80968 6.56208 5.31088 4.85132 5.62087C3.21369 5.9176 1.93231 6.91695 1.23452 7.74783C0.879209 8.17091 0.933936 8.80209 1.35675 9.15762C1.77957 9.51315 2.41037 9.45839 2.76567 9.03531C3.24435 8.46533 4.13944 7.78364 5.2077 7.59007C6.20282 7.40976 6.54297 7.63625 7.98154 9.10451C9.15931 10.3066 10.3243 10.7887 11.5523 10.6661C12.5692 10.5645 13.5132 10.0391 14.2939 9.60462C14.3547 9.57077 14.4145 9.53747 14.4733 9.50497C15.3595 9.01506 16.1696 8.59733 17.1062 8.46628C17.6442 8.391 18.2566 8.40727 18.9733 8.60603L15.1921 11.1788C14.7354 11.4895 14.617 12.1119 14.9275 12.5689C15.2381 13.0259 15.86 13.1444 16.3167 12.8337L21.6109 9.23144C22.0852 8.90869 22.1916 8.25368 21.8438 7.79727L17.7261 2.39393Z" fill="#838383"/>
<path d="M4.543 21.6247C4.88819 22.0561 5.51751 22.1258 5.94863 21.7804C6.37976 21.4351 6.44943 20.8053 6.10425 20.374L3.83924 17.5433C4.38931 17.5972 4.91392 17.5836 5.41704 17.5166C6.80861 17.3311 7.95334 16.743 8.87752 16.2564L8.90817 16.2402C9.88284 15.727 10.5293 15.3867 11.1701 15.3257C11.696 15.2757 12.3469 15.4127 13.2739 16.3137C15.2162 18.2017 17.2314 18.6715 18.9892 18.3682C20.6823 18.076 22.0173 17.0889 22.7499 16.258C23.1153 15.8437 23.0758 15.2113 22.6617 14.8457C22.2476 14.4801 21.6157 14.5196 21.2503 14.934C20.7476 15.504 19.7973 16.1979 18.6493 16.396C17.5659 16.583 16.184 16.3524 14.6675 14.8783C13.4327 13.678 12.2306 13.2146 10.9809 13.3335C9.93253 13.4332 8.95579 13.9507 8.13188 14.3872C7.18923 14.8866 6.22433 15.3901 5.15301 15.5328C4.57381 15.61 3.91813 15.5924 3.15574 15.3912L7.1025 12.8337C7.56606 12.5333 7.69849 11.9137 7.39828 11.4499C7.09806 10.986 6.4789 10.8535 6.01534 11.1539L0.456514 14.7561C-0.0403258 15.0781 -0.150483 15.759 0.219476 16.2214L4.543 21.6247Z" fill="#838383"/>
</svg>
