<svg width="24" height="24" viewBox="0 0 24 24" fill="none" xmlns="http://www.w3.org/2000/svg">
<path fill-rule="evenodd" clip-rule="evenodd" d="M17.3888 1.62639C18.223 0.791698 19.5759 0.79113 20.4109 1.62512L22.3731 3.58508C23.2085 4.41943 23.209 5.77303 22.3744 6.60809L13.1114 15.8759C12.8137 16.1737 12.4347 16.377 12.0219 16.4602L7.88401 17.2939C7.55565 17.36 7.21596 17.2574 6.97918 17.0205C6.74239 16.7836 6.63996 16.4438 6.70631 16.1155L7.54156 11.9826C7.62482 11.5707 7.8277 11.1924 8.12481 10.8951L17.3888 1.62639ZM18.9975 3.04016C18.9439 2.98658 18.8569 2.98662 18.8033 3.04024L9.53939 12.309C9.11604 12.7326 9.08606 14.4365 8.96493 15.0359C9.56463 14.9151 11.2733 14.8857 11.6968 14.462L20.9598 5.19424C21.0134 5.14061 21.0134 5.0537 20.9597 5.00011L18.9975 3.04016ZM5.4119 5C4.07981 5 3 6.07982 3 7.41179V18.5882C3 19.9202 4.07981 21 5.4119 21L16.5881 21C17.9202 21 19 19.9202 19 18.5882L19 12.9018C19 12.3496 19.4477 11.9018 20 11.9018C20.5523 11.9018 21 12.3496 21 12.9018L21 18.5882C21 21.0248 19.0247 23 16.5881 23L5.4119 23C2.9753 23 1 21.0248 1 18.5882V7.41179C1 4.97519 2.9753 3 5.4119 3H11.0984C11.6507 3 12.0984 3.44772 12.0984 4C12.0984 4.55228 11.6507 5 11.0984 5H5.4119Z" fill="#838383"/>
</svg>
