<svg width="24" height="24" viewBox="0 0 24 24" fill="none" xmlns="http://www.w3.org/2000/svg">
<path d="M13.3167 9.14426C13.2018 9.24412 13.0209 9.18763 12.9867 9.03925C12.8316 8.3645 12.6326 7.49373 12.4056 6.96574C12.2595 6.62577 12.1081 6.3224 11.9564 6.0552C11.7954 6.32982 11.6341 6.64217 11.4778 6.99243C11.2351 7.53625 11.0299 8.43252 10.8638 9.11983C10.8293 9.26275 10.6573 9.31903 10.5427 9.22694C10.1338 8.89846 9.7091 8.58366 9.276 8.28684C9.16677 8.21198 9.11774 8.07503 9.158 7.94888C9.79693 5.9466 10.8098 3.81142 11.9663 3C13.0978 3.79377 14.0775 5.87105 14.685 7.8206C14.7235 7.94414 14.6766 8.07773 14.5715 8.1532C14.1382 8.46428 13.717 8.79641 13.3167 9.14426Z" fill="#838383"/>
<path fill-rule="evenodd" clip-rule="evenodd" d="M22.9331 10.3462C23.7431 14.6458 17.0102 24.1123 13.0572 19.9785C9.10429 15.8447 18.8217 9.49948 22.9331 10.3462ZM14.1117 17.9534C14.1325 18.0662 14.1968 18.2579 14.4497 18.5223C14.8612 18.9527 15.2413 19.0322 15.8091 18.8517C16.5118 18.6284 17.4111 17.9895 18.3244 16.9394C19.2147 15.9156 19.9829 14.6545 20.4747 13.4423C20.6086 13.1123 20.7145 12.8045 20.7965 12.5211C20.4824 12.6015 20.139 12.7094 19.7699 12.8491C18.5327 13.3175 17.2393 14.0564 16.182 14.9186C15.0898 15.8092 14.4343 16.6793 14.1971 17.3371C14.0893 17.636 14.0889 17.83 14.1117 17.9534Z" fill="#838383"/>
<path fill-rule="evenodd" clip-rule="evenodd" d="M1.06724 10.2077C0.257248 14.5073 6.94976 24.1123 10.9028 19.9785C14.8557 15.8447 5.17863 9.36094 1.06724 10.2077ZM9.85028 17.946C9.82808 18.066 9.76129 18.2598 9.51029 18.5223C9.10525 18.9459 8.73769 19.0216 8.17702 18.8365C7.47757 18.6057 6.58009 17.9535 5.66841 16.8848C4.78023 15.8435 4.01395 14.5638 3.52358 13.336C3.38869 12.9982 3.28216 12.6834 3.20005 12.394C3.50861 12.476 3.84576 12.5852 4.2083 12.7261C5.44007 13.2049 6.72846 13.9584 7.78214 14.8361C8.86918 15.7417 9.52618 16.628 9.76462 17.3027C9.8736 17.611 9.87461 17.8145 9.85028 17.946Z" fill="#838383"/>
<path d="M10.8378 11.7057C10.9797 11.5248 10.9933 11.2712 10.8542 11.0881C9.15101 8.84661 6.61469 6.99704 4.68918 6.86123C4.38534 7.50852 4.2237 8.3358 4.18724 9.25329C4.18199 9.38549 4.26721 9.50328 4.39206 9.54708C4.81481 9.69537 5.24699 9.88396 5.67882 10.1064C5.8928 10.2166 6.15367 10.0526 6.14966 9.81192C6.14792 9.70726 6.14803 9.60562 6.14986 9.50708C6.41483 9.65997 6.69741 9.8449 6.9934 10.0648C7.98963 10.8048 8.88313 11.7189 9.59061 12.7496C9.72961 12.9521 10.05 12.9292 10.1676 12.7135C10.3538 12.372 10.5796 12.0347 10.8378 11.7057Z" fill="#838383"/>
<path d="M12.4615 14.4147C12.37 14.5847 12.1441 14.6219 11.9971 14.4968C11.718 14.2595 11.4244 14.0318 11.1201 13.8158C10.9284 13.6797 10.8473 13.4312 10.9475 13.2184C12.4005 10.1335 16.8874 6.9589 19.4023 6.78152C19.72 7.45831 19.8823 8.33187 19.9085 9.29957C19.9121 9.43232 19.8248 9.5494 19.6988 9.59114C19.2728 9.73218 18.8375 9.91152 18.4026 10.1233C18.1883 10.2276 17.9336 10.0618 17.9399 9.82348C17.9435 9.6864 17.944 9.55431 17.9417 9.42737C17.6767 9.58025 17.3941 9.76519 17.0981 9.98506C16.1007 10.726 14.5415 11.4156 13.4226 12.8584C12.989 13.4176 12.7336 13.9089 12.4615 14.4147Z" fill="#838383"/>
</svg>
