<svg width="24" height="24" viewBox="0 0 24 24" fill="none" xmlns="http://www.w3.org/2000/svg">
<path d="M13.5 12.9923C13.2239 12.9923 13 13.2196 13 13.5V18.5193C13 18.7996 13.2239 19.0269 13.5 19.0269H17.5C17.7761 19.0269 18 18.7996 18 18.5193V13.5C18 13.2196 17.7761 12.9923 17.5 12.9923H13.5Z" fill="#838383"/>
<path d="M6 6C6 5.44772 6.44772 5 7 5H17C17.5523 5 18 5.44772 18 6C18 6.55228 17.5523 7 17 7H7C6.44772 7 6 6.55228 6 6Z" fill="#838383"/>
<path d="M7 9C6.44772 9 6 9.44771 6 10C6 10.5523 6.44772 11 7 11H17C17.5523 11 18 10.5523 18 10C18 9.44771 17.5523 9 17 9H7Z" fill="#838383"/>
<path d="M6 14C6 13.4477 6.44772 13 7 13H11C11.5523 13 12 13.4477 12 14C12 14.5523 11.5523 15 11 15H7C6.44772 15 6 14.5523 6 14Z" fill="#838383"/>
<path d="M7 17C6.44772 17 6 17.4477 6 18C6 18.5523 6.44772 19 7 19H11C11.5523 19 12 18.5523 12 18C12 17.4477 11.5523 17 11 17H7Z" fill="#838383"/>
<path fill-rule="evenodd" clip-rule="evenodd" d="M2 2C2 1.43922 2.44772 1 3 1H21C21.5523 1 22 1.43922 22 2V21.9846C22 22.5454 21.5523 23 21 23H3C2.44772 23 2 22.5454 2 21.9846V2ZM4 20.9692V3H20V20.9692H4Z" fill="#838383"/>
</svg>
