<svg width="24" height="24" viewBox="0 0 24 24" fill="none" xmlns="http://www.w3.org/2000/svg">
<path fill-rule="evenodd" clip-rule="evenodd" d="M6.13044 3C4.89833 3 4 3.92868 4 4.95385L4 16.4415C4.64794 16.1389 5.38601 16 6.13044 16H6.13199L7.08696 16.0015V3H6.13044ZM9.08696 3V16.0046L20 16.0215V3.47692C20 3.26743 19.8024 3 19.4348 3H9.08696ZM20 18.0215L6.13044 18C5.42485 18.0001 4.86995 18.1837 4.51867 18.4484C3.84122 18.9589 3.81428 20.0581 4.50813 20.5668C4.85715 20.8227 5.41349 21 6.13044 21H19.4348C19.8024 21 20 20.7326 20 20.5231V18.0215ZM2 19.5231L2 4.95385C2 2.71629 3.90476 1 6.13044 1H19.4348C20.796 1 22 2.05505 22 3.47692V20.5231C22 21.945 20.796 23 19.4348 23H6.13044C5.11849 23 4.10961 22.7545 3.32563 22.1798C2.5083 21.5806 2 20.6649 2 19.5231Z" fill="#838383"/>
</svg>
