<svg width="24" height="24" viewBox="0 0 24 24" fill="none" xmlns="http://www.w3.org/2000/svg">
<path fill-rule="evenodd" clip-rule="evenodd" d="M6.70757 5.29292C6.51897 5.11076 6.26636 5.00997 6.00417 5.01224C5.74197 5.01452 5.49116 5.11969 5.30575 5.3051C5.12034 5.49051 5.01517 5.74132 5.0129 6.00352C5.01062 6.26571 5.11141 6.51832 5.29357 6.70692L10.5866 11.9999L5.29357 17.2929C5.19806 17.3852 5.12188 17.4955 5.06947 17.6175C5.01706 17.7395 4.98947 17.8707 4.98832 18.0035C4.98717 18.1363 5.01247 18.268 5.06275 18.3909C5.11303 18.5138 5.18728 18.6254 5.28117 18.7193C5.37507 18.8132 5.48672 18.8875 5.60962 18.9377C5.73251 18.988 5.86419 19.0133 5.99697 19.0122C6.12975 19.011 6.26097 18.9834 6.38297 18.931C6.50498 18.8786 6.61532 18.8024 6.70757 18.7069L12.0006 13.4139L17.2936 18.7069C17.4822 18.8891 17.7348 18.9899 17.997 18.9876C18.2592 18.9853 18.51 18.8801 18.6954 18.6947C18.8808 18.5093 18.986 18.2585 18.9882 17.9963C18.9905 17.7341 18.8897 17.4815 18.7076 17.2929L13.4146 11.9999L18.7076 6.70692C18.8897 6.51832 18.9905 6.26571 18.9882 6.00352C18.986 5.74132 18.8808 5.49051 18.6954 5.3051C18.51 5.11969 18.2592 5.01452 17.997 5.01224C17.7348 5.00997 17.4822 5.11076 17.2936 5.29292L12.0006 10.5859L6.70757 5.29292Z" fill="#FCFCFF"/>
</svg>
