<svg width="24" height="24" viewBox="0 0 24 24" fill="none" xmlns="http://www.w3.org/2000/svg">
<path fill-rule="evenodd" clip-rule="evenodd" d="M12 1C5.92472 1 1 5.92472 1 12C1 18.0753 5.92472 23 12 23C18.0753 23 23 18.0753 23 12C23 5.92472 18.0753 1 12 1ZM3 12C3 7.02928 7.02928 3 12 3C16.9707 3 21 7.02928 21 12C21 16.9707 16.9707 21 12 21C7.02928 21 3 16.9707 3 12ZM13 6C13 5.44772 12.5523 5 12 5C11.4477 5 11 5.44772 11 6V12C11 12.3788 11.214 12.725 11.5528 12.8944L15.5528 14.8944C16.0468 15.1414 16.6474 14.9412 16.8944 14.4472C17.1414 13.9532 16.9412 13.3526 16.4472 13.1056L13 11.382V6Z" fill="#1E1E20"/>
</svg>
